<svg width="23" height="27" viewBox="0 0 23 27" fill="none" xmlns="http://www.w3.org/2000/svg">
<path d="M17.6637 6.8856C17.6637 6.8856 17.6571 6.87782 17.6426 6.86312C17.6277 6.84784 17.6065 6.82737 17.5786 6.80258C17.5223 6.75227 17.4463 6.69072 17.3515 6.62442C17.1592 6.49022 16.9183 6.35603 16.6452 6.25225C16.112 6.04973 15.5081 5.97795 14.8456 6.17802C13.4401 6.60251 12.6325 7.72508 12.1138 9.36006C11.8828 10.6526 11.9049 13.1398 13.0883 14.3092C13.4355 14.6965 14.1903 15.1874 15.1577 15.8166C17.1918 17.1398 20.1665 19.0746 22.2717 21.9441C23.777 23.8629 22.2577 25.7144 21.5111 26.1219C20.4746 26.6877 19.4598 27.0813 18.2508 26.1219C17.0416 25.1625 15.1069 23.7822 13.0095 24.1512C10.912 24.5202 10.0828 24.658 8.85886 24.658H2.59433C1.16141 24.658 0 23.4964 0 22.0635V15.5592C0 12.738 1.77417 9.15913 4.60782 8.1758C5.52714 7.85682 6.39867 7.26195 6.77029 6.36252C7.75219 3.98636 9.56993 1.44733 13.0954 0.382561C17.395 -0.915997 20.9328 1.37915 22.2822 2.97147C23.363 4.24682 23.2053 6.15697 21.93 7.23774C20.6546 8.3185 18.7446 8.16096 17.6637 6.8856Z" fill="url(#paint0_radial_157_517)"/>
<defs>
<radialGradient id="paint0_radial_157_517" cx="0" cy="0" r="1" gradientUnits="userSpaceOnUse" gradientTransform="translate(14.9234 12.5676) rotate(152.241) scale(15.4742 13.288)">
<stop offset="0.187907" stop-color="#FBC4B3"/>
<stop offset="1" stop-color="#D89E89"/>
</radialGradient>
</defs>
</svg>
