<svg xmlns="http://www.w3.org/2000/svg" width="40" height="41" viewBox="0 0 40 41" fill="none">
  <g clip-path="url(#clip0_157_486)">
    <path d="M20.2647 32.2638C29.036 32.2638 36.1466 25.1532 36.1466 16.3819C36.1466 7.61056 29.036 0.5 20.2647 0.5C11.4934 0.5 4.38281 7.61056 4.38281 16.3819C4.38281 25.1532 11.4934 32.2638 20.2647 32.2638Z" fill="#FFD15C"/>
    <path d="M7.39816 25.6719L1.93359 35.1443L8.31154 34.8057L11.2092 40.4986L16.2643 31.7349C12.6423 30.7979 9.53201 28.6168 7.39816 25.6719Z" fill="#40596B"/>
    <path d="M33.1619 25.625C31.0437 28.5778 27.9335 30.7667 24.3193 31.7195L29.3902 40.499L32.2878 34.8061L38.6658 35.1447L33.1619 25.625Z" fill="#40596B"/>
    <path d="M20.2647 27.8928C26.6225 27.8928 31.7766 22.7387 31.7766 16.381C31.7766 10.0232 26.6225 4.86914 20.2647 4.86914C13.907 4.86914 8.75293 10.0232 8.75293 16.381C8.75293 22.7387 13.907 27.8928 20.2647 27.8928Z" fill="#F8B64C"/>
    <path d="M28.1545 15.1384C28.5088 14.792 28.312 14.1857 27.8238 14.1148L23.2805 13.4534C23.0836 13.4219 22.9183 13.3038 22.8317 13.1227L20.8002 9.00458C20.5797 8.55576 19.9419 8.55576 19.7214 9.00458L17.6978 13.1227C17.6112 13.2959 17.438 13.4219 17.249 13.4534L12.7057 14.1148C12.2175 14.1857 12.0206 14.792 12.375 15.1384L15.6584 18.3432C15.8002 18.4849 15.8632 18.6817 15.8317 18.8707L15.06 23.3904C14.9734 23.8786 15.4931 24.2566 15.934 24.0203L19.997 21.8865C20.1702 21.792 20.3828 21.792 20.5561 21.8865L24.6191 24.0203C25.06 24.2487 25.5718 23.8786 25.4931 23.3904L24.7136 18.8707C24.6821 18.6739 24.7451 18.477 24.8868 18.3432L28.1545 15.1384Z" fill="white"/>
  </g>
  <defs>
    <clipPath id="clip0_157_486">
      <rect width="40" height="40" fill="white" transform="translate(0 0.5)"/>
    </clipPath>
  </defs>
</svg>