<svg width="40" height="40" viewBox="0 0 40 40" fill="none" xmlns="http://www.w3.org/2000/svg">
  <circle cx="20" cy="20" r="18" fill="#4D8FF2" opacity="0.2"/>
  <path d="M19.9999 26.6251C19.9999 26.6251 10.8333 21.6251 10.8333 15.8334C10.8333 14.0797 11.5307 12.3978 12.7497 11.1788C13.9686 9.95985 15.6505 9.26251 17.4042 9.26251C18.5399 9.26251 19.6522 9.57436 20.6146 10.1657C20.7443 10.2403 20.8543 10.3409 20.9369 10.4606C21.0196 10.5804 21.0731 10.7165 21.0933 10.8594C21.1135 11.0023 21.0999 11.1483 21.0534 11.2855C21.0069 11.4228 20.9287 11.5479 20.8249 11.6501C20.7212 11.7524 20.5939 11.8294 20.453 11.8747C20.312 11.92 20.1613 11.9323 20.0149 11.9106C19.8684 11.889 19.7297 11.8339 19.6084 11.7495C18.9264 11.324 18.1253 11.0959 17.3025 11.0959C16.0368 11.0959 14.8231 11.6009 13.9175 12.5064C13.012 13.412 12.5071 14.6258 12.5071 15.8915C12.5071 18.8793 15.8981 22.5043 19.9985 25.2251C24.0996 22.5043 27.4906 18.8793 27.4906 15.8915C27.4906 14.6258 26.9857 13.412 26.0801 12.5064C25.1746 11.6009 23.9608 11.0959 22.6951 11.0959C21.8723 11.0959 21.0712 11.324 20.3892 11.7495C20.2679 11.8339 20.1292 11.889 19.9828 11.9106C19.8363 11.9323 19.6856 11.92 19.5447 11.8747C19.4038 11.8294 19.2764 11.7524 19.1727 11.6501C19.0689 11.5479 18.9907 11.4228 18.9443 11.2855C18.8978 11.1483 18.8841 11.0023 18.9044 10.8594C18.9246 10.7165 18.978 10.5804 19.0607 10.4606C19.1433 10.3409 19.2533 10.2403 19.383 10.1657C20.3455 9.57436 21.4577 9.26251 22.5935 9.26251C24.3472 9.26251 26.0291 9.95985 27.248 11.1788C28.467 12.3978 29.1644 14.0797 29.1644 15.8334C29.1666 21.6251 19.9999 26.6251 19.9999 26.6251Z" fill="#4D8FF2"/>
  <path d="M12.4995 17.0835C12.4995 17.0835 13.3328 19.1668 15.4162 20.8335" stroke="#1E1D31" stroke-width="1.5" stroke-linecap="round" stroke-linejoin="round"/>
  <path d="M27.4998 17.0835C27.4998 17.0835 26.6665 19.1668 24.5832 20.8335" stroke="#1E1D31" stroke-width="1.5" stroke-linecap="round" stroke-linejoin="round"/>
  <path d="M14.5835 23.3332C14.1664 23.3332 13.7562 23.2077 13.3963 22.9713C13.0364 22.7348 12.7407 22.3972 12.5455 21.9985C12.3503 21.5997 12.2632 21.1551 12.2937 20.7103C12.3241 20.2655 12.4712 19.8399 12.7193 19.4793L13.7502 17.9168C13.9983 17.5563 14.1455 17.1306 14.1759 16.6859C14.2064 16.2411 14.1192 15.7964 13.924 15.3977C13.7288 14.999 13.4331 14.6614 13.0733 14.4249C12.7134 14.1885 12.3031 14.063 11.8861 14.063M11.8861 14.063C11.1851 14.063 10.7168 14.063 10.7168 14.063C10.7168 15.7097 9.16683 16.6668 9.16683 18.3335V22.5002C9.16683 24.1668 10.4168 24.5835 11.6668 25.8335L12.9168 27.0835" stroke="#1E1D31" stroke-width="1.5" stroke-linecap="round" stroke-linejoin="round"/>
  <path d="M25.4165 23.3332C25.8335 23.3332 26.2438 23.2077 26.6036 22.9713C26.9635 22.7348 27.2592 22.3972 27.4544 21.9985C27.6497 21.5997 27.7368 21.1551 27.7063 20.7103C27.6759 20.2655 27.5288 19.8399 27.2806 19.4793L26.2498 17.9168C26.0016 17.5563 25.8545 17.1306 25.824 16.6859C25.7936 16.2411 25.8807 15.7964 26.0759 15.3977C26.2712 14.999 26.5669 14.6614 26.9267 14.4249C27.2866 14.1885 27.6969 14.063 28.1139 14.063M28.1139 14.063C28.8148 14.063 29.2831 14.063 29.2831 14.063C29.2831 15.7097 30.8331 16.6668 30.8331 18.3335V22.5002C30.8331 24.1668 29.5831 24.5835 28.3331 25.8335L27.0831 27.0835" stroke="#1E1D31" stroke-width="1.5" stroke-linecap="round" stroke-linejoin="round"/>
</svg> 