<svg width="40" height="40" viewBox="0 0 40 40" fill="none" xmlns="http://www.w3.org/2000/svg">
  <circle cx="20" cy="20" r="18" fill="#4D8FF2" opacity="0.2"/>
  <path d="M28.3334 14.5H11.6667C10.7462 14.5 10 15.2462 10 16.1667V28.3333C10 29.2538 10.7462 30 11.6667 30H28.3334C29.2538 30 30 29.2538 30 28.3333V16.1667C30 15.2462 29.2538 14.5 28.3334 14.5Z" stroke="#1E1D31" stroke-width="1.5" stroke-linecap="round" stroke-linejoin="round"/>
  <path d="M24.1666 14.5V12.1667C24.1666 11.2826 23.8155 10.4348 23.1904 9.80965C22.5652 9.18452 21.7174 8.83333 20.8333 8.83333H19.1666C18.2826 8.83333 17.4348 9.18452 16.8096 9.80965C16.1845 10.4348 15.8333 11.2826 15.8333 12.1667V14.5" stroke="#1E1D31" stroke-width="1.5" stroke-linecap="round" stroke-linejoin="round"/>
  <path d="M20 21.6667C20.92 21.6667 21.6667 20.92 21.6667 20C21.6667 19.08 20.92 18.3333 20 18.3333C19.08 18.3333 18.3334 19.08 18.3334 20C18.3334 20.92 19.08 21.6667 20 21.6667Z" stroke="#4D8FF2" stroke-width="1.5" stroke-linecap="round" stroke-linejoin="round"/>
  <path d="M20 21.6667V25" stroke="#4D8FF2" stroke-width="1.5" stroke-linecap="round" stroke-linejoin="round"/>
</svg> 